<svg xmlns="http://www.w3.org/2000/svg" width="40" height="40"><path fill="#fff" d="M28.745 12.986c-.73.433-1.467 1.023-2.325 1.192a3.77 3.77 0 0 0-6.426 3.44 10.713 10.713 0 0 1-7.772-3.94 3.753 3.753 0 0 0-.51 1.894 3.77 3.77 0 0 0 1.677 3.14 3.78 3.78 0 0 1-1.71-.47v.046c0 1.827 1.3 3.35 3.02 3.697a3.79 3.79 0 0 1-1.7.065 3.776 3.776 0 0 0 3.52 2.62 7.57 7.57 0 0 1-5.58 1.56 10.67 10.67 0 0 0 5.78 1.692c6.94 0 10.73-5.746 10.73-10.73 0-.163 0-.325-.01-.487.74-.53 1.58-1.265 2.09-2.02-.68.3-1.61.57-2.38.663.78-.47 1.3-1.483 1.59-2.365z"/></svg>