<svg xmlns="http://www.w3.org/2000/svg" width="40" height="40"><path fill="#fff" d="M24.943 23.076c-1.168.722-1.896.936-2.942 1.04l3.42 3.365a1.18 1.18 0 0 1 0 1.72l-.58.64c-.49.48-1.41.22-1.91-.25-.82-.79-1.63-1.46-2.86-2.64l-2.82 2.64c-.49.48-1.48.7-1.97.22l-.6-.66a1.18 1.18 0 0 1 0-1.71 201.81 201.81 0 0 0 3.42-3.36c-1.04-.1-1.73-.25-2.91-.98-1.38-.85-1.99-1.77-1.45-2.82.31-.6 1.17-1.21 2.32-.35 1.55 1.17 4.03 1.17 4.03 1.17s2.48 0 4.03-1.17c1.14-.86 2-.25 2.31.35.54 1.05-.07 1.97-1.45 2.82zm-4.92-3.102c-2.74 0-4.962-2.242-4.962-5.007 0-2.766 2.23-5.006 4.97-5.006 2.74 0 4.97 2.24 4.97 5.01 0 2.77-2.22 5.01-4.96 5.01zm-.015-6.983c-1.105 0-2 .9-2 2.01 0 1.11.895 2.01 2 2.01s2-.9 2-2.01a2 2 0 0 0-2-2z"/></svg>