<svg xmlns="http://www.w3.org/2000/svg" width="40" height="40"><path fill="#fff" d="M25.456 20.676c.442.556.663 1.253.663 2.093 0 .68-.16 1.29-.48 1.84a3.498 3.498 0 0 1-1.29 1.29c-.34.19-.85.34-1.53.43-.91.12-1.51.18-1.81.18h-6.96V13.33h7.55c1.25 0 2.22.314 2.89.943.67.63 1.01 1.41 1.01 2.34 0 .78-.24 1.45-.72 2.007-.32.372-.79.666-1.41.882.94.228 1.63.62 2.07 1.174zm-4.262-4.35c-.246-.216-.675-.324-1.286-.324H18v2.5h1.882c.628 0 1.066-.108 1.312-.327.246-.22.37-.536.37-.95 0-.383-.124-.684-.37-.9zm.463 5.043c-.282-.24-.776-.36-1.482-.36H18v2.67h2.184c.694 0 1.184-.13 1.468-.38.285-.25.428-.59.428-1.01 0-.39-.142-.71-.423-.94z"/></svg>