<svg width="227" height="44" viewBox="0 0 227 44" xmlns="http://www.w3.org/2000/svg"><path d="M70.69 17.115l-.96-3.418h-4.502v18.449l1.405.95v.917h-6.067v-.917l1.437-.95V13.729l-1.213-.981v-.917h11.432v5.284h-1.533zm15.68 11.866c0 3.228-2.299 5.317-5.844 5.317-3.545 0-5.812-2.12-5.812-5.317v-9.936c0-3.196 2.267-5.316 5.812-5.316 3.545 0 5.844 2.088 5.844 5.316v9.936zm-8.526 0c0 2.184.83 3.323 2.682 3.323 1.852 0 2.715-1.519 2.715-3.323v-9.936c0-1.836-.863-3.323-2.715-3.323-1.852 0-2.682 1.108-2.682 3.323v9.936zm23.792-6.741c0 3.61-2.618 4.526-5.78 4.526h-1.692v5.507l1.18.886v.854h-5.46v-.854l1.246-.886V15.69l-1.054-.79v-.855h5.844c3.098 0 5.716 1.138 5.716 4.651v3.544zm-7.472-6.36v9.178h1.756c1.884 0 2.586-1.045 2.586-2.817v-3.544c0-1.772-.638-2.816-2.554-2.816h-1.788zm22.355 13.101c0 3.228-2.3 5.317-5.844 5.317-3.545 0-5.812-2.12-5.812-5.317v-9.936c0-3.196 2.267-5.316 5.812-5.316 3.544 0 5.844 2.088 5.844 5.316v9.936zm-8.527 0c0 2.184.83 3.323 2.683 3.323 1.852 0 2.714-1.519 2.714-3.323v-9.936c0-1.836-.862-3.323-2.714-3.323-1.852 0-2.683 1.108-2.683 3.323v9.936zm14.788-13.259l-1.15-.79v-.855h11.145v.854l-1.022.791v16.456h1.756l.192 4.746h-1.565l-.894-2.911h-9.964l-.894 2.911h-1.565l.16-4.746c1.31.126 2.108-.159 2.268-1.836l1.532-14.62zm.733 14.303c-.095.918-.127 1.583-.99 2.058v.095h6.164V15.849h-3.768l-1.406 14.176zm24.389 2.279l1.182.792v.917h-4.472v-.917l1.15-.792V15.691l-1.086-.79v-.855h2.81c2.236 0 2.907-.19 3.29 1.392 1.022 5.6 1.596 9.24 2.171 14.81h.064l2.427-14.969c.224-1.108.607-1.202 1.725-1.202 1.692 0 2.619-.031 4.311-.031v.854l-1.085.79v16.583l1.213.886v.854h-5.525v-.854l1.214-.886V18.887c0 .032 0 .063.095-2.785h-.127l-3.034 17.69h-2.523c-.639 0-.926-.254-1.021-.823-.895-5.664-1.757-11.012-2.78-16.645h-.095l.096 3.608v12.372m16.671 1.709v-.854l1.246-.886V15.596l-1.054-.791v-.76h10.283v4.462h-1.501l-.83-2.69h-3.768v7.373h2.618l.799-1.55h.893v4.81h-.893l-.799-1.455h-2.618v6.17c0 .475-.128.727-.64.886v.158h4.759l1.022-2.658h1.342v4.462h-10.859m24.942-18.353v16.613l1.182.917v.823h-5.461v-.823l1.213-.917v-6.235h-1.692c-3.609 0-5.972-2.31-5.972-5.917v-4.335l-1.245-.918v-.822h5.588v.822l-1.245.918v4.335c0 2.374.766 3.892 2.906 3.892h1.66V15.66l-1.021-.79v-.823h5.11v.822l-1.023.791m11.242.252v16.17l1.182.919v1.012h-5.556V33l1.213-.918v-16.17h-2.044l-.958 3.196h-1.437l.096-5.063h11.815l.128 5.063h-1.437l-1.022-3.197h-1.98m18.587 13.482c0 3.512-2.618 4.62-5.716 4.62h-5.844v-.823l1.054-.791V15.817l-1.246-.886v-.854h5.461v.854l-1.182.886v5.76h1.693c3.162 0 5.78.918 5.78 4.525v3.29zm-3.13 0v-3.291c0-1.772-.702-2.784-2.586-2.784h-1.757v8.891h1.79c1.915 0 2.554-1.044 2.554-2.816zm9.294 2.88l1.181.886v.854h-5.46v-.854l1.245-.886V15.69l-1.022-.79v-.855h5.078v.854l-1.022.79v16.583zM49 37v-2h1v-1h-1v-1h1v-1h-1v-1h-1v1H33v-1h-1v1h-1v1h1v1h-1v1h1v2h-1v1h1v3.015a517.628 517.628 0 0 0-9.106.01 12.928 12.928 0 0 1-1.108-.276c-.615-.184-1.603-.835-1.686-1.507C19.842 37.164 20 34 20 34h4.492c3.383 0 7.57-9.75 5.385-11.848.783-1.566 1.67-2.955 2.187-4.481.543-1.596-.87-2.103-1.852-2.808-.238-.172-.405-.654-.389-.982.158-3.138-.221-5.906-3.825-6.67-.103-.022-.233-.233-.241-.364-.147-2.26-1.866-3.438-3.071-4.977-1.107-1.415-2.42-1.426-3.5-.001-1.121 1.478-2.354 2.247-4.346 1.577-.72-.242-2.201.526-2.683 1.287-1.113 1.755-2.313 3.449-2.308 5.911.004 1.921-.292 4.16-2.183 5.615-.379.292-.012 1.772.144 2.68.254 1.47 1.021 2.976.842 4.364-.266 2.059.356 5.974 1.935 7.007 2.039 1.335 4.247 2.386 6.365 3.592.433.247 1.127.632 1.131.96.023 1.81.08 3.683-.359 5.397-.048.19-.68.528-1.485.88-9.522.239-16.123.758-16.123 1.36C.116 43.33 12.595 44 27.988 44s27.872-.672 27.872-1.5c0-.377-2.588-.722-6.86-.986V38h1v-1h-1zm-16 0v-2h15v2H33zm0 1v3.024c5.835.057 11.038.212 15 .432V38H33zm0-4v-1h15v1h1z" fill-rule="evenodd"/></svg>